<?xml version="1.0" standalone="no"?>
<!DOCTYPE svg PUBLIC "-//W3C//DTD SVG 20010904//EN"
 "http://www.w3.org/TR/2001/REC-SVG-20010904/DTD/svg10.dtd">
<svg version="1.0" xmlns="http://www.w3.org/2000/svg"
 width="500.000000pt" height="500.000000pt" viewBox="0 0 500.000000 500.000000"
 preserveAspectRatio="xMidYMid meet">
<metadata>
Created by potrace 1.14, written by Peter Selinger 2001-2017
</metadata>
<g transform="translate(0.000000,500.000000) scale(0.100000,-0.100000)"
fill="#000000" stroke="none">
<path d="M2635 4737 c-8 -4 -15 -12 -15 -17 0 -5 -20 -56 -45 -112 l-45 -103
-382 1 -382 1 -53 94 c-29 52 -58 104 -65 117 -8 15 -20 22 -40 22 -20 0 -31
-6 -37 -22 -5 -13 -45 -102 -90 -198 -45 -96 -82 -184 -82 -195 0 -11 5 -44
12 -73 10 -44 10 -55 -1 -62 -9 -6 -13 -34 -12 -100 0 -83 -3 -102 -38 -196
-38 -102 -39 -107 -30 -177 5 -40 12 -102 15 -137 9 -96 13 -111 46 -147 26
-30 29 -41 29 -101 0 -68 0 -68 46 -112 38 -36 44 -48 39 -69 -3 -14 -101
-216 -217 -447 l-211 -422 36 -183 c50 -252 51 -269 32 -384 -13 -83 -14 -116
-5 -190 13 -106 58 -431 64 -460 2 -11 9 -60 16 -110 6 -49 15 -118 20 -152 8
-56 6 -70 -17 -125 -13 -35 -28 -67 -32 -71 -4 -4 -42 -9 -83 -11 -58 -2 -89
-9 -131 -30 -50 -24 -56 -30 -62 -66 -8 -46 -17 -54 -65 -56 -72 -3 -145 -16
-159 -29 -12 -11 -7 -15 30 -26 24 -7 70 -12 101 -13 52 -1 58 -3 58 -22 0
-13 8 -24 18 -26 16 -5 554 -1 617 4 11 0 101 -2 200 -6 284 -12 1336 -21
1383 -11 13 2 127 7 255 10 128 3 255 7 282 10 28 2 104 7 170 10 66 3 136 8
155 10 19 2 64 7 100 10 181 17 232 24 251 35 31 20 -7 31 -151 46 -30 3 -64
7 -75 8 -16 2 -23 19 -40 92 l-20 88 -52 31 c-62 36 -58 25 -78 180 -4 28 -9
61 -11 75 -12 79 -34 274 -35 325 -1 33 2 116 6 185 12 189 9 229 -33 440 -30
146 -37 198 -28 207 12 12 151 98 200 123 32 16 48 38 129 169 29 46 60 95 69
110 40 61 52 90 63 153 7 37 10 70 7 72 -6 6 -75 -29 -127 -64 -22 -15 -58
-37 -80 -48 -22 -11 -49 -28 -60 -37 -119 -95 -208 -149 -260 -158 -17 -3 -42
-8 -56 -12 -24 -6 -28 -3 -39 29 -18 55 -69 156 -78 156 -5 0 -22 12 -38 27
-16 15 -69 59 -119 98 -106 83 -109 85 -236 194 -66 56 -103 96 -112 120 -54
135 -250 935 -249 1016 0 11 35 82 77 159 l77 138 -28 52 c-15 28 -39 69 -54
91 -15 22 -42 67 -60 100 -43 79 -97 162 -112 171 -17 11 -56 11 -73 1z m555
-3159 c30 -40 58 -81 182 -263 52 -77 120 -177 151 -223 33 -48 57 -94 58
-110 0 -15 2 -36 4 -47 7 -46 15 -123 22 -198 5 -67 3 -82 -10 -92 -9 -6 -19
-27 -22 -46 -9 -54 -16 -93 -21 -111 -4 -14 -19 -16 -117 -13 -62 2 -161 4
-220 4 l-109 1 -11 29 c-7 19 -24 36 -49 47 -37 17 -38 18 -38 73 0 91 56 497
94 676 1 6 13 76 26 158 13 81 27 147 30 147 3 0 17 -15 30 -32z m-1293 -32
c1 -1 5 -24 8 -52 6 -48 72 -173 120 -227 11 -12 27 -32 35 -44 8 -12 42 -56
74 -98 36 -48 59 -88 59 -104 1 -30 -12 -157 -19 -186 -2 -11 -6 -42 -9 -69
-2 -27 -8 -53 -12 -57 -5 -4 -33 -17 -63 -30 -94 -39 -97 -43 -115 -127 l-17
-77 -214 -2 c-165 -2 -214 0 -214 10 0 12 63 343 100 522 10 50 41 189 69 310
28 121 54 230 56 242 5 21 6 21 72 6 38 -9 69 -16 70 -17z m677 -351 c14 -60
27 -123 30 -140 14 -90 38 -233 42 -255 3 -14 7 -70 10 -125 l4 -100 -36 -20
c-19 -10 -42 -31 -49 -45 -13 -25 -19 -27 -80 -27 l-66 0 6 41 c9 73 46 330
50 356 34 209 46 339 36 383 -6 27 -11 79 -10 115 l1 67 19 -70 c10 -38 30
-119 43 -180z"/>
</g>
</svg>
